Coordinates
version=1
nRows=26
nColumns=24
inDegrees=yes

Units are S.I. units (second, meters, Newtons, ...)
If the header above contains a line with 'inDegrees', this indicates whether rotational values are in degrees (yes) or radians (no).

endheader
time	pelvis_tilt	pelvis_list	pelvis_rotation	pelvis_tx	pelvis_ty	pelvis_tz	hip_flexion_r	hip_adduction_r	hip_rotation_r	knee_angle_r	ankle_angle_r	subtalar_angle_r	mtp_angle_r	hip_flexion_l	hip_adduction_l	hip_rotation_l	knee_angle_l	ankle_angle_l	subtalar_angle_l	mtp_angle_l	lumbar_extension	lumbar_bending	lumbar_rotation
     29.75000000	    -10.14056679	      5.64691219	      0.78918665	      0.95260354	      1.01012101	     -0.59260221	     20.46780235	     -4.58231713	     -0.82453571	    -67.70862028	     -6.80074513	    -16.09832925	      0.00000000	     15.12907478	      7.20862038	      1.56216355	    -29.48060620	     27.15706107	      2.70683248	      0.00000000	    -37.35726664	     -7.68554636	      0.40267196
     29.76000000	    -10.16948421	      5.32876064	      0.82139638	      0.95218815	      1.01367749	     -0.59345667	     22.37889319	     -4.30164329	     -0.89545021	    -68.37695509	     -5.88526029	    -15.64393456	      0.00000000	     13.46274271	      6.95175115	      2.09405928	    -27.34263978	     26.47728747	      2.29248119	      0.00000000	    -37.45641738	     -7.16980555	      0.41443113
     29.77000000	    -10.15393250	      4.93030892	      0.86003457	      0.95160345	      1.01702021	     -0.59443828	     24.16668720	     -3.91393577	     -0.91771185	    -68.78226787	     -4.71837512	    -15.10870724	      0.00000000	     11.82331724	      6.60155845	      2.57090190	    -25.27840121	     25.81045409	      1.85871167	      0.00000000	    -37.61968863	     -6.54932136	      0.44035129
     29.78000000	    -10.02139937	      4.49732004	      0.57316793	      0.95134110	      1.01999032	     -0.59467594	     25.74110774	     -3.31132456	     -0.64924653	    -68.89371317	     -3.51966843	    -14.73436312	      0.00000000	     10.08051490	      6.10865111	      2.63938828	    -23.32118438	     25.33993918	      1.63627163	      0.00000000	    -37.84640322	     -6.12280226	      0.78172528
     29.79000000	     -9.94341540	      4.05657378	      0.52023009	      0.95052216	      1.02259817	     -0.59551000	     27.32012504	     -2.82866922	     -0.57928822	    -68.81361009	     -2.22362521	    -14.47899558	      0.00000000	      8.45412582	      5.71490097	      3.12066060	    -21.39120619	     24.74333817	      0.98740090	      0.00000000	    -38.07254055	     -5.51223354	      1.01808877
     29.80000000	     -9.82238620	      3.53126500	      0.15081475	      0.95007230	      1.02467424	     -0.59553066	     28.73492268	     -2.09966681	     -0.33048500	    -68.42737501	     -1.23746026	    -14.62472319	      0.00000000	      6.80355110	      5.09514426	      3.01330925	    -19.54227438	     24.30070920	      0.78632809	      0.00000000	    -38.25258965	     -5.06153971	      1.40804631
     29.81000000	     -9.67577525	      3.06275567	     -0.13333003	      0.94920454	      1.02624052	     -0.59578894	     30.06901785	     -1.48730239	     -0.16610549	    -67.85093630	     -0.37359312	    -14.87759811	      0.00000000	      5.26548125	      4.55768337	      2.89146814	    -17.92922914	     23.97307609	      0.68740420	      0.00000000	    -38.48652721	     -4.59793794	      1.68640826
     29.82000000	     -9.56573059	      2.54305358	     -0.43020270	      0.94844497	      1.02717479	     -0.59599584	     31.34462550	     -0.81361358	     -0.01390841	    -67.09570226	      0.43631842	    -15.12393092	      0.00000000	      3.78713829	      3.98622819	      2.79691732	    -16.39090358	     23.68762652	      0.45027470	      0.00000000	    -38.64367025	     -4.11131420	      2.12351299
     29.83000000	     -9.54024768	      2.07671060	     -0.71822086	      0.94734577	      1.02746680	     -0.59617701	     32.65422067	     -0.19785554	      0.15296410	    -66.21174439	      1.03678342	    -15.41970050	      0.00000000	      2.49776862	      3.47061474	      2.61798049	    -15.00952275	     23.50424738	      0.36943453	      0.00000000	    -38.72747839	     -3.68431288	      2.35597445
     29.84000000	     -9.50716991	      1.65353219	     -0.90148264	      0.94604341	      1.02728616	     -0.59649221	     33.88180680	      0.29822935	      0.24363034	    -65.20003194	      1.67247333	    -15.64396720	      0.00000000	      1.28460081	      3.02422990	      2.54636054	    -13.80208378	     23.44871910	      0.31522261	      0.00000000	    -38.82556714	     -3.23101734	      2.57356853
     29.85000000	     -9.54580420	      1.23439035	     -1.07740050	      0.94461301	      1.02646327	     -0.59666660	     35.11153250	      0.77282970	      0.31304194	    -64.08279987	      2.35736490	    -15.62395188	      0.00000000	      0.23417680	      2.57628160	      2.41423649	    -12.75501808	     23.45527096	      0.31033163	      0.00000000	    -38.84630813	     -2.81834073	      2.80178124
     29.86000000	     -9.56233371	      0.87474715	     -1.20441458	      0.94316881	      1.02521066	     -0.59682178	     36.24254309	      1.12722577	      0.36675103	    -62.88133760	      3.41907858	    -15.07378076	      0.00000000	     -0.78840440	      2.18733870	      2.26572763	    -11.81450445	     23.54716593	      0.42374349	      0.00000000	    -38.88460795	     -2.42748974	      3.06319395
     29.87000000	     -9.62320290	      0.63096806	     -1.28620384	      0.94158284	      1.02348571	     -0.59697727	     37.40118830	      1.35061463	      0.44930477	    -61.69668628	      4.38745279	    -14.56788511	      0.00000000	     -1.74197562	      1.91893887	      2.10220256	    -10.91862727	     23.67124124	      0.55684357	      0.00000000	    -38.87963377	     -2.14794943	      3.12472392
     29.88000000	     -9.73144020	      0.43862973	     -1.31640353	      0.93997071	      1.02129541	     -0.59714108	     38.57549992	      1.47106017	      0.48891038	    -60.54544805	      5.74956151	    -13.47798927	      0.00000000	     -2.50376712	      1.70709900	      1.99732626	    -10.28688176	     23.92733502	      0.75330503	      0.00000000	    -38.83203533	     -1.87297083	      3.21634612
     29.89000000	     -9.75125627	      0.31259339	     -1.19623799	      0.93856499	      1.01895260	     -0.59744448	     39.53794374	      1.46734496	      0.53177875	    -59.32039668	      6.40732200	    -12.83026824	      0.00000000	     -3.35607339	      1.56308701	      2.03890835	     -9.66979621	     24.13181795	      0.97956727	      0.00000000	    -38.84963962	     -1.61916588	      3.04793272
     29.90000000	     -9.84106975	      0.31646789	     -1.10463466	      0.93693921	      1.01620075	     -0.59764624	     40.52645481	      1.38985357	      0.72142190	    -58.16063175	      7.24820371	    -11.88536639	      0.00000000	     -4.06293525	      1.55417892	      2.04008994	     -9.16185057	     24.38743454	      1.17310764	      0.00000000	    -38.78100238	     -1.52298057	      2.77579927
     29.91000000	     -9.95487689	      0.37981821	     -0.87833676	      0.93512627	      1.01324271	     -0.59802612	     41.47034546	      1.17618945	      0.87491950	    -56.96523376	      7.92894051	    -11.13311988	      0.00000000	     -4.62843146	      1.59533928	      2.16800131	     -8.84193682	     24.69366062	      1.41352131	      0.00000000	    -38.72485673	     -1.39299413	      2.52002001
     29.92000000	    -10.00603545	      0.47478588	     -0.92672561	      0.93397708	      1.01004520	     -0.59784692	     42.31805953	      1.14780985	      1.32913416	    -56.02474555	      9.13457471	    -10.01601369	      0.00000000	     -5.36440780	      1.65771308	      1.84931605	     -8.43511120	     25.02463449	      1.85157550	      0.00000000	    -38.65904520	     -1.46324265	      2.53286700
     29.93000000	    -10.08597668	      0.59634441	     -0.88052807	      0.93269779	      1.00669588	     -0.59778295	     43.08388314	      1.05596784	      1.76331627	    -55.03964369	     10.08297482	     -9.13254543	      0.00000000	     -5.99936648	      1.74046211	      1.61331747	     -8.13779013	     25.45224617	      2.34373673	      0.00000000	    -38.56069199	     -1.53338934	      2.36921134
     29.94000000	    -10.13495248	      0.74299895	     -0.78975952	      0.93145972	      1.00325627	     -0.59782048	     43.78249237	      0.88667899	      2.12124942	    -54.17241313	     10.77905169	     -8.44084732	      0.00000000	     -6.58495548	      1.85706194	      1.49514037	     -8.00646818	     25.98711914	      2.80445413	      0.00000000	    -38.50451325	     -1.56339173	      2.24918382
     29.95000000	    -10.19165144	      0.87854005	     -0.75035022	      0.93039337	      0.99972556	     -0.59763221	     44.34275838	      0.87261745	      2.64169655	    -53.33859549	     11.31177077	     -8.37478176	      0.00000000	     -7.19258409	      1.92175357	      0.98472891	     -7.84856572	     26.58231939	      3.83893591	      0.00000000	    -38.40125216	     -1.65364304	      2.11438882
     29.96000000	    -10.24023091	      0.95722800	     -0.74987672	      0.92941369	      0.99604297	     -0.59744500	     44.83865921	      0.85833608	      3.00800479	    -52.61539045	     11.84902932	     -8.21822835	      0.00000000	     -7.75238984	      1.97820712	      0.86396044	     -7.82113644	     27.07332000	      4.17052992	      0.00000000	    -38.30830070	     -1.68040493	      2.24750464
     29.97000000	    -10.22721043	      1.02249311	     -0.74373802	      0.92857304	      0.99238676	     -0.59726218	     45.21117067	      0.80046921	      3.23935870	    -52.07615249	     12.29389727	     -8.00130775	      0.00000000	     -8.38044088	      2.02783075	      0.78925423	     -7.80214475	     27.62108140	      4.47260121	      0.00000000	    -38.26033253	     -1.68615356	      2.18154303
     29.98000000	    -10.21897007	      1.08671685	     -0.64381289	      0.92764954	      0.98878927	     -0.59716845	     45.47343932	      0.73961422	      3.45543325	    -51.63629268	     12.63900078	     -8.13497212	      0.00000000	     -8.94927736	      2.07156893	      0.95375899	     -7.85567287	     28.01202360	      4.49160942	      0.00000000	    -38.22072869	     -1.64481773	      2.17585487
     29.99000000	    -10.14990482	      1.03064174	     -0.91065600	      0.92748858	      0.98502880	     -0.59641479	     45.56189438	      1.07075079	      3.95189523	    -51.23976550	     12.97536841	     -8.22794766	      0.00000000	     -9.71815485	      2.02275930	      0.60608970	     -7.78400452	     28.43485066	      4.72402025	      0.00000000	    -38.15167132	     -1.71476515	      2.52544367
     30.00000000	    -10.11827755	      0.90988685	     -1.07180584	      0.92732424	      0.98126303	     -0.59570474	     45.67020123	      1.39148407	      4.23386130	    -51.18589395	     13.14405430	     -8.29745634	      0.00000000	    -10.37980049	      1.90814339	      0.48120084	     -7.83625564	     28.76983113	      4.58856828	      0.00000000	    -38.05134675	     -1.66827931	      2.65250174
